<?xml version="1.0" encoding="UTF-8" standalone="no"?>
<!-- Created with Inkscape (http://www.inkscape.org/) -->

<svg
   xmlns:dc="http://purl.org/dc/elements/1.1/"
   xmlns:cc="http://creativecommons.org/ns#"
   xmlns:rdf="http://www.w3.org/1999/02/22-rdf-syntax-ns#"
   xmlns:svg="http://www.w3.org/2000/svg"
   xmlns="http://www.w3.org/2000/svg"
   xmlns:sodipodi="http://sodipodi.sourceforge.net/DTD/sodipodi-0.dtd"
   xmlns:inkscape="http://www.inkscape.org/namespaces/inkscape"
   width="210mm"
   height="297mm"
   viewBox="0 0 210 297"
   version="1.1"
   id="svg8"
   inkscape:version="0.92.4 (5da689c313, 2019-01-14)">
  <defs
     id="defs2">
    <marker
       inkscape:stockid="Arrow1Lstart"
       orient="auto"
       refY="0.0"
       refX="0.0"
       id="Arrow1Lstart"
       style="overflow:visible"
       inkscape:isstock="true">
      <path
         id="path8729"
         d="M 0.0,0.0 L 5.0,-5.0 L -12.5,0.0 L 5.0,5.0 L 0.0,0.0 z "
         style="fill-rule:evenodd;stroke:#000000;stroke-width:1pt;stroke-opacity:1;fill:#000000;fill-opacity:1"
         transform="scale(0.8) translate(12.5,0)" />
    </marker>
  </defs>
  <sodipodi:namedview
     id="base"
     pagecolor="#ffffff"
     bordercolor="#666666"
     borderopacity="1.0"
     inkscape:pageopacity="0.0"
     inkscape:pageshadow="2"
     inkscape:zoom="0.98994949"
     inkscape:cx="145.38065"
     inkscape:cy="603.47774"
     inkscape:document-units="mm"
     inkscape:current-layer="layer1"
     showgrid="false"
     inkscape:window-width="2060"
     inkscape:window-height="1397"
     inkscape:window-x="1376"
     inkscape:window-y="20"
     inkscape:window-maximized="0" />
  <metadata
     id="metadata5">
    <rdf:RDF>
      <cc:Work
         rdf:about="">
        <dc:format>image/svg+xml</dc:format>
        <dc:type
           rdf:resource="http://purl.org/dc/dcmitype/StillImage" />
        <dc:title></dc:title>
      </cc:Work>
    </rdf:RDF>
  </metadata>
  <g
     inkscape:label="Layer 1"
     inkscape:groupmode="layer"
     id="layer1">
    <path
       id="path8720"
       title="0.4 * x*x"
       d="M 37.685001 186.593388545 l 122.40945 0 M 98.889726 199.179354 l 0 -138.44562 M 37.685001 67.5395622544 C 37.8900419548 67.5088107338 38.0950829095 69.94138963 38.3001238643 69.9205786536 C 38.5051648191 69.8997676771 38.7102057739 72.2883651143 38.9152467286 72.277544382 C 39.1202876834 72.2667236497 39.3253286382 74.6112640862 39.530369593 74.6104594398 C 39.7354105477 74.6096547933 39.9404515025 76.9101104658 40.1454924573 76.9193238268 C 40.3505334121 76.9285371878 40.5555743668 79.1849281777 40.7606153216 79.2041375432 C 40.9656562764 79.2233469086 41.1706972312 81.435741094 41.3757381859 81.4649005888 C 41.5807791407 81.4940600836 41.7858200955 83.6625729773 41.9908610503 83.7016129638 C 42.195902005 83.7406529502 42.4009429598 85.8654474238 42.6059839146 85.914274668 C 42.8110248693 85.9631019123 43.0160658241 88.0443878071 43.2211067789 88.1028857016 C 43.4261477337 88.1613835961 43.6311886884 90.1994172223 43.8362296432 90.2674460644 C 44.041270598 90.3354749066 44.2463115528 92.3305584308 44.4513525075 92.4079557566 C 44.6563934623 92.4853530824 44.8614344171 94.4378338062 45.0664753719 94.5244147781 C 45.2715163266 94.61099575 45.4765572814 96.5212652804 45.6815982362 96.6168231288 C 45.886639191 96.7123809772 46.0916801457 98.5808742919 46.2967211005 98.6851808089 C 46.5017620553 98.7894873259 46.7068030101 100.616681734 46.9118439648 100.729487818 C 47.1168849196 100.842293903 47.3219258744 102.628707904 47.5269668291 102.749744157 C 47.7320077839 102.87078041 47.9370487387 104.616972459 48.1420896935 104.745949825 C 48.3471306482 104.874927191 48.552171603 106.581494362 48.7572125578 106.718104822 C 48.9622535126 106.854715283 49.1672944673 108.522291842 49.3723354221 108.666209149 C 49.5773763769 108.810126456 49.7824173317 110.43938235 49.9874582864 110.590262805 C 50.1924992412 110.741143259 50.397540196 112.332782514 50.6025811508 112.49026579 C 50.8076221055 112.647749065 51.0126630603 114.202508104 51.2177040151 114.366218104 C 51.4227449698 114.529928104 51.6277859246 116.04857399 51.8328268794 116.218119748 C 52.0378678342 116.387665507 52.2429087889 117.870994107 52.4479497437 118.045970721 C 52.6529906985 118.220947335 52.8580316533 119.669781428 53.063072608 119.849771023 C 53.2681135628 120.029760619 53.4731545176 121.444947922 53.6781954724 121.629520655 C 53.8832364271 121.814093389 54.0882773819 123.196504535 54.2933183367 123.385219616 C 54.4983592915 123.573934697 54.7034002462 124.924461161 54.908441201 125.116867906 C 55.1134821558 125.309274652 55.3185231106 126.628826614 55.5235640653 126.824465526 C 55.7286050201 127.020104438 55.9336459749 128.309608615 56.1386869296 128.508012475 C 56.3437278844 128.706416335 56.5487688392 129.966813766 56.753809794 130.167508753 C 56.9588507487 130.36820374 57.1638917035 131.60044754 57.3689326583 131.802954361 C 57.5739736131 132.005461182 57.7790145678 133.210514262 57.9840555226 133.414349297 C 58.1890964774 133.618184333 58.3941374322 134.797017104 58.5991783869 135.001693564 C 58.8042193417 135.206370023 59.0092602965 136.359958078 59.2143012513 136.564987159 C 59.419342206 136.77001624 59.6243831608 137.899338023 59.8294241156 138.104230084 C 60.0344650704 138.309122144 60.2395060251 139.415156614 60.4445469799 139.619422338 C 60.6495879347 139.823688061 60.8546288894 140.907412355 61.0596698442 141.110563921 C 61.264710799 141.313715487 61.4697517538 142.376102584 61.6747927085 142.577654834 C 61.8798336633 142.779207083 62.0848746181 143.821223482 62.2899155729 144.020695075 C 62.4949565276 144.220166669 62.6999974824 145.24277008 62.9050384372 145.439684647 C 63.110079392 145.636599213 63.3151203467 146.640736272 63.5201613015 146.834623547 C 63.7252022563 147.028510822 63.9302432111 148.015114828 64.1352841658 148.205511777 C 64.3403251206 148.395908726 64.5453660754 149.365897413 64.7504070302 149.552349336 C 64.9554479849 149.738801259 65.1604889397 150.693074605 65.3655298945 150.875136224 C 65.5705708492 151.057197844 65.775611804 151.996635919 65.9806527588 152.173872442 C 66.1856937136 152.351108965 66.3907346683 153.276569832 66.5957756231 153.448557989 C 66.8008165779 153.620546146 67.0058575327 154.532863811 67.2108984874 154.699192866 C 67.4159394422 154.86552192 67.620980397 155.76550434 67.8260213518 155.925777071 C 68.0310623065 156.086049802 68.2361032613 156.974476956 68.4411442161 157.128310606 C 68.6461851709 157.282144256 68.8512261256 158.159766282 69.0562670804 158.30679347 C 69.2613080352 158.453820659 69.4663489899 159.321356061 69.6713899447 159.461225664 C 69.8764308995 159.601095266 70.0814718543 160.459229202 70.286512809 160.591607187 C 70.4915537638 160.723985171 70.6965947186 161.573367812 70.9016356734 161.697938039 C 71.1066766281 161.822508265 71.3117175829 162.663753246 71.5167585377 162.78021822 C 71.7217994925 162.896683194 71.9268404472 163.730366147 72.131881402 163.838447731 C 72.3369223568 163.946529315 72.5419633116 164.773186494 72.7470042663 164.872626571 C 72.9520452211 164.972066648 73.1570861759 165.792193649 73.3621271307 165.88275474 C 73.5671680854 165.973315832 73.7722090402 166.787366408 73.977249995 166.868832239 C 74.1822909497 166.95029807 74.3873319045 167.75868305 74.5923728593 167.830859067 C 74.7974138141 167.903035083 75.0024547688 168.70612139 75.2074957236 168.768835224 C 75.4125366784 168.831549058 75.6175776332 169.62965883 75.8226185879 169.682760711 C 76.0276595427 169.735862591 76.2327004975 170.529272415 76.4377414523 170.572635526 C 76.642782407 170.615998638 76.8478233618 171.404938888 77.0528643166 171.438459672 C 77.2579052714 171.471980455 77.4629462261 172.256634744 77.6679871809 172.280233146 C 77.8730281357 172.303831548 78.0780690905 173.084336285 78.2831100452 173.09795595 C 78.488151 173.111575614 78.6931919548 173.888019682 78.8982329095 173.891628083 C 79.1032738643 173.895236484 79.3083148191 174.667661026 79.5133557739 174.661249545 C 79.7183967286 174.654838065 79.9234376834 175.423236387 80.1284786382 175.406820337 C 80.333519593 175.390404287 80.5385605477 176.154721873 80.7436015025 176.128340458 C 80.9486424573 176.101959043 81.1536834121 176.862093686 81.3587243668 176.825809908 C 81.5637653216 176.789526131 81.7688062764 177.545328176 81.9738472312 177.499228688 C 82.1788881859 177.4531292 82.3839291407 178.204401902 82.5889700955 178.148596796 C 82.7940110503 178.092791691 82.999052005 178.839291686 83.2040929598 178.773914235 C 83.4091339146 178.708536784 83.6141748693 179.449974667 83.8192158241 179.375181002 C 84.0242567789 179.300387338 84.2292977337 180.036428357 84.4343386884 179.952397099 C 84.6393796432 179.86836584 84.844420598 180.598630697 85.0494615528 180.505562525 C 85.2545025075 180.412494353 85.4595434623 181.136560104 85.6645844171 181.03467728 C 85.8696253719 180.932794457 86.0746663266 181.650195527 86.2797072814 181.539741365 C 86.4847482362 181.429287203 86.689789191 182.139516497 86.8948301457 182.020754779 C 87.0998711005 181.901993061 87.3049120553 182.604503173 87.5099530101 182.477717522 C 87.7149939648 182.350931871 87.9200349196 183.045136394 88.1250758744 182.910629595 C 88.3301168291 182.776122796 88.5351577839 183.46139772 88.7401987387 183.319490997 C 88.9452396935 183.177584273 89.1502806482 183.853269478 89.355321603 183.704301728 C 89.5603625578 183.555333977 89.7654035126 184.220734807 89.9704444673 184.065061788 C 90.1754854221 183.90938877 90.3805263769 184.563777692 90.5855673317 184.401771178 C 90.7906082864 184.239764665 90.9956492412 184.882383008 91.200690196 184.714429897 C 91.4057311508 184.546476787 91.6107721055 185.176536553 91.8158130603 185.003037946 C 92.0208540151 184.829539338 92.2258949698 185.446225085 92.4309359246 185.267595323 C 92.6359768794 185.088965561 92.8410178342 185.691436349 93.0460587889 185.50810203 C 93.2510997437 185.324767712 93.4561406985 185.912159109 93.6611816533 185.724558066 C 93.866222608 185.536957023 94.0712635628 186.108383177 94.2763045176 185.916963432 C 94.4813454724 185.725543687 94.6863864271 186.280099433 94.8914273819 186.085318127 C 95.0964683367 185.890536821 95.3015092915 186.427299847 95.5065502462 186.229622151 C 95.711591201 186.031944455 95.9166321558 186.549977505 96.1216731106 186.349875505 C 96.3267140653 186.149773505 96.5317550201 186.648126615 96.7367959749 186.446078187 C 96.9418369296 186.24402976 97.1468778844 186.721742529 97.3519188392 186.5182302 C 97.556959794 186.31471787 97.7620007487 186.770821752 97.9670417035 186.566331541 C 98.1720826583 186.36184133 98.3771236131 186.795361948 98.5821645678 186.590382212 C 98.7872055226 186.385402475 98.9922464774 186.795361948 99.1972874322 186.590382212 C 99.4023283869 186.385402475 99.6073693417 186.770821752 99.8124102965 186.566331541 C 100.017451251 186.36184133 100.222492206 186.721742529 100.427533161 186.5182302 C 100.632574116 186.31471787 100.83761507 186.648126615 101.042656025 186.446078187 C 101.24769698 186.24402976 101.452737935 186.549977505 101.657778889 186.349875505 C 101.862819844 186.149773505 102.067860799 186.427299847 102.272901754 186.229622151 C 102.477942709 186.031944455 102.682983663 186.280099433 102.888024618 186.085318127 C 103.093065573 185.890536821 103.298106528 186.108383177 103.503147482 185.916963432 C 103.708188437 185.725543687 103.913229392 185.912159109 104.118270347 185.724558066 C 104.323311302 185.536957023 104.528352256 185.691436349 104.733393211 185.50810203 C 104.938434166 185.324767712 105.143475121 185.446225085 105.348516075 185.267595323 C 105.55355703 185.088965561 105.758597985 185.176536553 105.96363894 185.003037946 C 106.168679894 184.829539338 106.373720849 184.882383008 106.578761804 184.714429897 C 106.783802759 184.546476787 106.988843714 184.563777692 107.193884668 184.401771178 C 107.398925623 184.239764665 107.603966578 184.220734807 107.809007533 184.065061788 C 108.014048487 183.90938877 108.219089442 183.853269478 108.424130397 183.704301728 C 108.629171352 183.555333977 108.834212307 183.46139772 109.039253261 183.319490997 C 109.244294216 183.177584273 109.449335171 183.045136394 109.654376126 182.910629595 C 109.85941708 182.776122796 110.064458035 182.604503173 110.26949899 182.477717522 C 110.474539945 182.350931871 110.679580899 182.139516497 110.884621854 182.020754779 C 111.089662809 181.901993061 111.294703764 181.650195527 111.499744719 181.539741365 C 111.704785673 181.429287203 111.909826628 181.136560104 112.114867583 181.03467728 C 112.319908538 180.932794457 112.524949492 180.598630697 112.729990447 180.505562525 C 112.935031402 180.412494353 113.140072357 180.036428357 113.345113312 179.952397099 C 113.550154266 179.86836584 113.755195221 179.449974667 113.960236176 179.375181002 C 114.165277131 179.300387338 114.370318085 178.839291686 114.57535904 178.773914235 C 114.780399995 178.708536784 114.98544095 178.204401902 115.190481905 178.148596796 C 115.395522859 178.092791691 115.600563814 177.545328176 115.805604769 177.499228688 C 116.010645724 177.4531292 116.215686678 176.862093686 116.420727633 176.825809908 C 116.625768588 176.789526131 116.830809543 176.154721873 117.035850497 176.128340458 C 117.240891452 176.101959043 117.445932407 175.423236387 117.650973362 175.406820337 C 117.856014317 175.390404287 118.061055271 174.667661026 118.266096226 174.661249545 C 118.471137181 174.654838065 118.676178136 173.888019682 118.88121909 173.891628083 C 119.086260045 173.895236484 119.291301 173.084336285 119.496341955 173.09795595 C 119.70138291 173.111575614 119.906423864 172.256634744 120.111464819 172.280233146 C 120.316505774 172.303831548 120.521546729 171.404938888 120.726587683 171.438459672 C 120.931628638 171.471980455 121.136669593 170.529272415 121.341710548 170.572635526 C 121.546751503 170.615998638 121.751792457 169.62965883 121.956833412 169.682760711 C 122.161874367 169.735862591 122.366915322 168.70612139 122.571956276 168.768835224 C 122.776997231 168.831549058 122.982038186 167.75868305 123.187079141 167.830859067 C 123.392120095 167.903035083 123.59716105 166.787366408 123.802202005 166.868832239 C 124.00724296 166.95029807 124.212283915 165.792193649 124.417324869 165.88275474 C 124.622365824 165.973315832 124.827406779 164.773186494 125.032447734 164.872626571 C 125.237488688 164.972066648 125.442529643 163.730366147 125.647570598 163.838447731 C 125.852611553 163.946529315 126.057652508 162.663753246 126.262693462 162.78021822 C 126.467734417 162.896683194 126.672775372 161.573367812 126.877816327 161.697938039 C 127.082857281 161.822508265 127.287898236 160.459229202 127.492939191 160.591607187 C 127.697980146 160.723985171 127.903021101 159.321356061 128.108062055 159.461225664 C 128.31310301 159.601095266 128.518143965 158.159766282 128.72318492 158.30679347 C 128.928225874 158.453820659 129.133266829 156.974476956 129.338307784 157.128310606 C 129.543348739 157.282144256 129.748389693 155.76550434 129.953430648 155.925777071 C 130.158471603 156.086049802 130.363512558 154.532863811 130.568553513 154.699192866 C 130.773594467 154.86552192 130.978635422 153.276569832 131.183676377 153.448557989 C 131.388717332 153.620546146 131.593758286 151.996635919 131.798799241 152.173872442 C 132.003840196 152.351108965 132.208881151 150.693074605 132.413922106 150.875136224 C 132.61896306 151.057197844 132.824004015 149.365897413 133.02904497 149.552349336 C 133.234085925 149.738801259 133.439126879 148.015114828 133.644167834 148.205511777 C 133.849208789 148.395908726 134.054249744 146.640736272 134.259290698 146.834623547 C 134.464331653 147.028510822 134.669372608 145.24277008 134.874413563 145.439684647 C 135.079454518 145.636599213 135.284495472 143.821223482 135.489536427 144.020695075 C 135.694577382 144.220166669 135.899618337 142.376102584 136.104659291 142.577654834 C 136.309700246 142.779207083 136.514741201 140.907412355 136.719782156 141.110563921 C 136.924823111 141.313715487 137.129864065 139.415156614 137.33490502 139.619422338 C 137.539945975 139.823688061 137.74498693 137.899338023 137.950027884 138.104230084 C 138.155068839 138.309122144 138.360109794 136.359958078 138.565150749 136.564987159 C 138.770191704 136.77001624 138.975232658 134.797017104 139.180273613 135.001693564 C 139.385314568 135.206370023 139.590355523 133.210514262 139.795396477 133.414349297 C 140.000437432 133.618184333 140.205478387 131.60044754 140.410519342 131.802954361 C 140.615560296 132.005461182 140.820601251 129.966813766 141.025642206 130.167508753 C 141.230683161 130.36820374 141.435724116 128.309608615 141.64076507 128.508012475 C 141.845806025 128.706416335 142.05084698 126.628826614 142.255887935 126.824465526 C 142.460928889 127.020104438 142.665969844 124.924461161 142.871010799 125.116867906 C 143.076051754 125.309274652 143.281092709 123.196504535 143.486133663 123.385219616 C 143.691174618 123.573934697 143.896215573 121.444947922 144.101256528 121.629520655 C 144.306297482 121.814093389 144.511338437 119.669781428 144.716379392 119.849771023 C 144.921420347 120.029760619 145.126461302 117.870994107 145.331502256 118.045970721 C 145.536543211 118.220947335 145.741584166 116.04857399 145.946625121 116.218119748 C 146.151666075 116.387665507 146.35670703 114.202508104 146.561747985 114.366218104 C 146.76678894 114.529928104 146.971829894 112.332782514 147.176870849 112.49026579 C 147.381911804 112.647749065 147.586952759 110.43938235 147.791993714 110.590262805 C 147.997034668 110.741143259 148.202075623 108.522291842 148.407116578 108.666209149 C 148.612157533 108.810126456 148.817198487 106.581494362 149.022239442 106.718104822 C 149.227280397 106.854715283 149.432321352 104.616972459 149.637362307 104.745949825 C 149.842403261 104.874927191 150.047444216 102.628707904 150.252485171 102.749744157 C 150.457526126 102.87078041 150.66256708 100.616681734 150.867608035 100.729487818 C 151.07264899 100.842293903 151.277689945 98.5808742919 151.482730899 98.6851808089 C 151.687771854 98.7894873259 151.892812809 96.5212652804 152.097853764 96.6168231288 C 152.302894719 96.7123809772 152.507935673 94.4378338062 152.712976628 94.5244147781 C 152.918017583 94.61099575 153.123058538 92.3305584308 153.328099492 92.4079557566 C 153.533140447 92.4853530824 153.738181402 90.1994172223 153.943222357 90.2674460644 C 154.148263312 90.3354749066 154.353304266 88.0443878071 154.558345221 88.1028857016 C 154.763386176 88.1613835961 154.968427131 85.8654474238 155.173468085 85.914274668 C 155.37850904 85.9631019123 155.583549995 83.6625729773 155.78859095 83.7016129638 C 155.993631905 83.7406529502 156.198672859 81.435741094 156.403713814 81.4649005888 C 156.608754769 81.4940600836 156.813795724 79.1849281777 157.018836678 79.2041375432 C 157.223877633 79.2233469086 157.428918588 76.9101104658 157.633959543 76.9193238268 C 157.839000497 76.9285371878 158.044041452 74.6112640862 158.249082407 74.6104594398 C 158.454123362 74.6096547933 158.659164317 72.2883651143 158.864205271 72.277544382 C 159.069246226 72.2667236497 159.274287181 69.94138963 159.479328136 69.9205786536 C 159.68436909 69.8997676771 159.889410045 67.570313775 160.094451 67.5395622544"
       style="stroke-width:0.26458332;fill:none;stroke:#000000;stroke-opacity:1"
       inkscape:export-xdpi="96"
       inkscape:export-ydpi="96" />
    <text
       xml:space="preserve"
       style="font-style:normal;font-weight:normal;font-size:10.58333302px;line-height:1.25;font-family:sans-serif;letter-spacing:0px;word-spacing:0px;fill:#000000;fill-opacity:1;stroke:none;stroke-width:0.26458332"
       x="102.09696"
       y="194.63576"
       id="text9495"><tspan
         sodipodi:role="line"
         id="tspan9493"
         x="102.09696"
         y="194.63576"
         style="stroke-width:0.26458332">y<tspan
   style="font-size:64.99999762%;baseline-shift:sub"
   id="tspan9497">i</tspan></tspan></text>
  </g>
</svg>
