<?xml version="1.0" encoding="UTF-8" standalone="no"?>
<!-- Created with Inkscape (http://www.inkscape.org/) -->

<svg
   xmlns:dc="http://purl.org/dc/elements/1.1/"
   xmlns:cc="http://creativecommons.org/ns#"
   xmlns:rdf="http://www.w3.org/1999/02/22-rdf-syntax-ns#"
   xmlns:svg="http://www.w3.org/2000/svg"
   xmlns="http://www.w3.org/2000/svg"
   xmlns:sodipodi="http://sodipodi.sourceforge.net/DTD/sodipodi-0.dtd"
   xmlns:inkscape="http://www.inkscape.org/namespaces/inkscape"
   sodipodi:docname="quantile_loss.svg"
   inkscape:export-ydpi="96"
   inkscape:export-xdpi="96"
   inkscape:export-filename="/home/breakds/org/blog/images/quantile_regression/least_square_loss.png"
   inkscape:version="0.92.4 (5da689c313, 2019-01-14)"
   id="svg8"
   version="1.1"
   viewBox="0 0 210 297"
   height="297mm"
   width="210mm">
  <defs
     id="defs2">
    <marker
       inkscape:stockid="Arrow1Lstart"
       orient="auto"
       refY="0.0"
       refX="0.0"
       id="Arrow1Lstart"
       style="overflow:visible"
       inkscape:isstock="true">
      <path
         id="path8729"
         d="M 0.0,0.0 L 5.0,-5.0 L -12.5,0.0 L 5.0,5.0 L 0.0,0.0 z "
         style="fill-rule:evenodd;stroke:#000000;stroke-width:1pt;stroke-opacity:1;fill:#000000;fill-opacity:1"
         transform="scale(0.8) translate(12.5,0)" />
    </marker>
  </defs>
  <sodipodi:namedview
     id="base"
     pagecolor="#ffffff"
     bordercolor="#666666"
     borderopacity="1.0"
     inkscape:pageopacity="0.0"
     inkscape:pageshadow="2"
     inkscape:zoom="1.979899"
     inkscape:cx="62.813073"
     inkscape:cy="659.23731"
     inkscape:document-units="mm"
     inkscape:current-layer="layer1"
     showgrid="false"
     inkscape:window-width="2060"
     inkscape:window-height="1397"
     inkscape:window-x="1376"
     inkscape:window-y="20"
     inkscape:window-maximized="0" />
  <metadata
     id="metadata5">
    <rdf:RDF>
      <cc:Work
         rdf:about="">
        <dc:format>image/svg+xml</dc:format>
        <dc:type
           rdf:resource="http://purl.org/dc/dcmitype/StillImage" />
        <dc:title></dc:title>
      </cc:Work>
    </rdf:RDF>
  </metadata>
  <g
     inkscape:label="Layer 1"
     inkscape:groupmode="layer"
     id="layer1">
    <path
       id="path9564"
       title="abs(x)"
       d="M 15.551847 137.633868727 l 79.634987 0 M 55.3693405 144.873413 l 0 -79.634987 M 15.551847 97.8163752273 C 15.685238938 97.7218443927 15.818630876 98.3057378953 15.9520228141 98.2165510413 C 16.0854147521 98.1273641874 16.2188066901 98.7002972896 16.3521986281 98.6167268554 C 16.4855905662 98.5331564212 16.6189825042 99.0946014013 16.7523744422 99.0169026695 C 16.8857663802 98.9392039377 17.0191583183 99.4886681666 17.1525502563 99.4170784836 C 17.2859421943 99.3454888005 17.4193341323 99.8825162469 17.5527260704 99.8172542976 C 17.6861180084 99.7519923484 17.8195099464 100.276164971 17.9529018844 100.217430112 C 18.0862938224 100.158695252 18.2196857605 100.669634279 18.3530776985 100.617605926 C 18.4864696365 100.565577573 18.6198615745 101.062944655 18.7532535126 101.01778174 C 18.8866454506 100.972618825 19.0200373886 101.456117072 19.1534293266 101.417957554 C 19.2868212647 101.379798036 19.4202132027 101.849172923 19.5536051407 101.818133368 C 19.6869970787 101.787093813 19.8203890168 102.242133957 19.9537809548 102.218309182 C 20.0871728928 102.194484407 20.2205648308 102.635022214 20.3539567688 102.618484996 C 20.4873487069 102.601947778 20.6207406449 103.027859955 20.7541325829 103.01866081 C 20.8875245209 103.009461666 21.020916459 103.420669595 21.154308397 103.418836624 C 21.287700335 103.417003654 21.421092273 103.813473636 21.5544842111 103.819012438 C 21.6878761491 103.824551241 21.8212680871 104.206294596 21.9546600251 104.219188252 C 22.0880519631 104.232081909 22.2214439012 104.599154943 22.3548358392 104.619364066 C 22.4882277772 104.63957319 22.6216197152 104.992077022 22.7550116533 105.019539881 C 22.8884035913 105.047002739 23.0217955293 105.385082992 23.1551874673 105.419715695 C 23.2885794054 105.454348397 23.4219713434 105.778194755 23.5553632814 105.819891509 C 23.6887552194 105.861588262 23.8221471575 106.171433889 23.9555390955 106.220067323 C 24.0889310335 106.268700757 24.2223229715 106.564821583 24.3557149095 106.620243137 C 24.4891068476 106.675664691 24.6224987856 106.958378574 24.7558907236 107.020418951 C 24.8892826616 107.082459328 25.0226745997 107.352125079 25.1560665377 107.420594765 C 25.2894584757 107.489064451 25.4228504137 107.746080739 25.5562423518 107.820770579 C 25.6896342898 107.895460419 25.8230262278 108.140264554 25.9564181658 108.220946393 C 26.0898101039 108.301628233 26.2232020419 108.534694827 26.3565939799 108.621122207 C 26.4899859179 108.707549587 26.6233778559 108.929389111 26.756769794 109.021298021 C 26.890161732 109.113206932 27.02355367 109.324364149 27.156945608 109.421473835 C 27.2903375461 109.518583522 27.4237294841 109.719635827 27.5571214221 109.821649649 C 27.6905133601 109.923663472 27.8239052982 110.115219128 27.9572972362 110.221825463 C 28.0906891742 110.328431799 28.2240811122 110.511128078 28.3574730503 110.622001278 C 28.4908649883 110.732874477 28.6242569263 110.907375713 28.7576488643 111.022177092 C 28.8910408023 111.13697847 29.0244327404 111.303974032 29.1578246784 111.422352906 C 29.2912166164 111.540731779 29.4246085544 111.700933963 29.5580004925 111.82252872 C 29.6913924305 111.944123476 29.8247843685 112.09826533 29.9581763065 112.222704534 C 30.0915682446 112.347143738 30.2249601826 112.495976821 30.3583521206 112.622880348 C 30.4917440586 112.749783875 30.6251359966 112.894075964 30.7585279347 113.023056162 C 30.8919198727 113.152036359 31.0253118107 113.292569104 31.1587037487 113.423231976 C 31.2920956868 113.553894848 31.4254876248 113.691461379 31.5588795628 113.82340779 C 31.6922715008 113.955354201 31.8256634389 114.090756711 31.9590553769 114.223583604 C 32.0924473149 114.356410498 32.2258392529 114.490457789 32.359231191 114.623759418 C 32.492623129 114.757061047 32.626015067 114.890566064 32.759407005 115.023935232 C 32.892798943 115.157304401 33.0261908811 115.291081741 33.1595828191 115.424111046 C 33.2929747571 115.557140351 33.4263666951 115.692003784 33.5597586332 115.82428686 C 33.6931505712 115.956569937 33.8265425092 116.093329911 33.9599344472 116.224462675 C 34.0933263853 116.355595438 34.2267183233 116.49505661 34.3601102613 116.624638489 C 34.4935021993 116.754220367 34.6268941374 116.897179143 34.7602860754 117.024814303 C 34.8936780134 117.152449462 35.0270699514 117.299691563 35.1604618894 117.424990117 C 35.2938538275 117.550288671 35.4272457655 117.702586732 35.5606377035 117.825165931 C 35.6940296415 117.947745129 35.8274215796 118.105856344 35.9608135176 118.225341745 C 36.0942054556 118.344827145 36.2275973936 118.509490949 36.3609893317 118.625517559 C 36.4943812697 118.741544169 36.6277732077 118.91347998 36.7611651457 119.025693373 C 36.8945570838 119.137906766 37.0279490218 119.317811789 37.1613409598 119.425869187 C 37.2947328978 119.533926585 37.4281248358 119.722473681 37.5615167739 119.826045001 C 37.6949087119 119.929616322 37.8283006499 120.127451952 37.9616925879 120.226220815 C 38.095084526 120.324989678 38.228476464 120.532731933 38.361868402 120.626396629 C 38.49526034 120.720061326 38.6286522781 120.938298031 38.7620442161 121.026572443 C 38.8954361541 121.114846855 39.0288280921 121.344133782 39.1622200302 121.426748257 C 39.2956119682 121.509362733 39.4290039062 121.750221894 39.5623958442 121.826924071 C 39.6957877822 121.903626249 39.8291797203 122.156544309 39.9625716583 122.227099886 C 40.0959635963 122.297655462 40.2293555343 122.56308225 40.3627474724 122.6272757 C 40.4961394104 122.691469149 40.6295313484 122.969816283 40.7629232864 123.027451514 C 40.8963152245 123.085086744 41.0297071625 123.376726374 41.1630991005 123.427627328 C 41.2964910385 123.478528281 41.4298829765 123.783791953 41.5632749146 123.827803142 C 41.6966668526 123.871814331 41.8300587906 124.190991972 41.9634507286 124.227978956 C 42.0968426667 124.26496594 42.2302346047 124.598304976 42.3636265427 124.62815477 C 42.4970184807 124.658004564 42.6304104188 125.005709161 42.7638023568 125.028330584 C 42.8971942948 125.050952007 43.0305862328 125.413182449 43.1639781709 125.428506398 C 43.2973701089 125.443830348 43.4307620469 125.820702546 43.5641539849 125.828682212 C 43.6975459229 125.836661878 43.830937861 126.228247019 43.964329799 126.228858026 C 44.097721737 126.229469034 44.231113675 126.635793358 44.3645056131 126.62903384 C 44.4978975511 126.622274322 44.6312894891 127.043319049 44.7646814271 127.029209654 C 44.8980733652 127.015100259 45.0314653032 127.45080164 45.1648572412 127.429385468 C 45.2982491792 127.407969296 45.4316411173 127.858218812 45.5650330553 127.829561283 C 45.6984249933 127.800903754 45.8318169313 128.265548443 45.9652088693 128.229737097 C 46.0986008074 128.193925751 46.2319927454 128.672768681 46.3653846834 128.629912911 C 46.4987766214 128.587057141 46.6321685595 129.079858007 46.7655604975 129.030088725 C 46.8989524355 128.980319443 47.0323443735 129.486795303 47.1657363116 129.430264539 C 47.2991282496 129.373733774 47.4325201876 129.893559915 47.5659121256 129.830440353 C 47.6993040637 129.767320791 47.8326960017 130.300131715 47.9660879397 130.230616167 C 48.0994798777 130.161100619 48.2328718157 130.706491166 48.3662637538 130.630791981 C 48.4996556918 130.555092796 48.6330476298 131.112619379 48.7664395678 131.030967795 C 48.8998315059 130.949316211 49.0332234439 131.518498171 49.1666153819 131.431143609 C 49.3000073199 131.343789048 49.433399258 131.92411012 49.566791196 131.831319423 C 49.700183134 131.738528726 49.833575072 132.329438622 49.9669670101 132.231495237 C 50.1003589481 132.133551852 50.2337508861 132.734467936 50.3671428241 132.631671051 C 50.5005347621 132.528874166 50.6339267002 133.139183237 50.7673186382 133.031846865 C 50.9007105762 132.924510494 51.0341025142 133.543570657 51.1674944523 133.43202268 C 51.3008863903 133.320474702 51.4342783283 133.947617331 51.5676702663 133.832198494 C 51.7010622044 133.716779656 51.8344541424 134.351311435 51.9678460804 134.232374308 C 52.1012380184 134.11343718 52.2346299564 134.754642222 52.3680218945 134.632550122 C 52.5014138325 134.510458021 52.6348057705 135.157600055 52.7681977085 135.032725936 C 52.9015896466 134.907851817 53.0349815846 135.560176434 53.1683735226 135.43290175 C 53.3017654606 135.305627066 53.4351573987 135.962364027 53.5685493367 135.833077564 C 53.7019412747 135.703791101 53.8353332127 136.364156689 53.9687251508 136.233253378 C 54.1021170888 136.102350067 54.2355090268 136.76554948 54.3689009648 136.633429192 C 54.5022929028 136.501308904 54.6356848409 137.166538684 54.7690767789 137.033605006 C 54.9024687169 136.900671329 55.0358606549 137.567121814 55.169252593 137.43378082 C 55.302644531 137.300439826 55.436036469 137.567121814 55.569428407 137.43378082 C 55.7028203451 137.300439826 55.8362122831 137.166538684 55.9696042211 137.033605006 C 56.1029961591 136.900671329 56.2363880972 136.76554948 56.3697800352 136.633429192 C 56.5031719732 136.501308904 56.6365639112 136.364156689 56.7699558492 136.233253378 C 56.9033477873 136.102350067 57.0367397253 135.962364027 57.1701316633 135.833077564 C 57.3035236013 135.703791101 57.4369155394 135.560176434 57.5703074774 135.43290175 C 57.7036994154 135.305627066 57.8370913534 135.157600055 57.9704832915 135.032725936 C 58.1038752295 134.907851817 58.2372671675 134.754642222 58.3706591055 134.632550122 C 58.5040510436 134.510458021 58.6374429816 134.351311435 58.7708349196 134.232374308 C 58.9042268576 134.11343718 59.0376187956 133.947617331 59.1710107337 133.832198494 C 59.3044026717 133.716779656 59.4377946097 133.543570657 59.5711865477 133.43202268 C 59.7045784858 133.320474702 59.8379704238 133.139183237 59.9713623618 133.031846865 C 60.1047542998 132.924510494 60.2381462379 132.734467936 60.3715381759 132.631671051 C 60.5049301139 132.528874166 60.6383220519 132.329438622 60.7717139899 132.231495237 C 60.905105928 132.133551852 61.038497866 131.92411012 61.171889804 131.831319423 C 61.305281742 131.738528726 61.4386736801 131.518498171 61.5720656181 131.431143609 C 61.7054575561 131.343789048 61.8388494941 131.112619379 61.9722414322 131.030967795 C 62.1056333702 130.949316211 62.2390253082 130.706491166 62.3724172462 130.630791981 C 62.5058091843 130.555092796 62.6392011223 130.300131715 62.7725930603 130.230616167 C 62.9059849983 130.161100619 63.0393769363 129.893559915 63.1727688744 129.830440353 C 63.3061608124 129.767320791 63.4395527504 129.486795303 63.5729446884 129.430264539 C 63.7063366265 129.373733774 63.8397285645 129.079858007 63.9731205025 129.030088725 C 64.1065124405 128.980319443 64.2399043786 128.672768681 64.3732963166 128.629912911 C 64.5066882546 128.587057141 64.6400801926 128.265548443 64.7734721307 128.229737097 C 64.9068640687 128.193925751 65.0402560067 127.858218812 65.1736479447 127.829561283 C 65.3070398827 127.800903754 65.4404318208 127.45080164 65.5738237588 127.429385468 C 65.7072156968 127.407969296 65.8406076348 127.043319049 65.9739995729 127.029209654 C 66.1073915109 127.015100259 66.2407834489 126.635793358 66.3741753869 126.62903384 C 66.507567325 126.622274322 66.640959263 126.228247019 66.774351201 126.228858026 C 66.907743139 126.229469034 67.0411350771 125.820702546 67.1745270151 125.828682212 C 67.3079189531 125.836661878 67.4413108911 125.413182449 67.5747028291 125.428506398 C 67.7080947672 125.443830348 67.8414867052 125.005709161 67.9748786432 125.028330584 C 68.1082705812 125.050952007 68.2416625193 124.598304976 68.3750544573 124.62815477 C 68.5084463953 124.658004564 68.6418383333 124.190991972 68.7752302714 124.227978956 C 68.9086222094 124.26496594 69.0420141474 123.783791953 69.1754060854 123.827803142 C 69.3087980235 123.871814331 69.4421899615 123.376726374 69.5755818995 123.427627328 C 69.7089738375 123.478528281 69.8423657755 122.969816283 69.9757577136 123.027451514 C 70.1091496516 123.085086744 70.2425415896 122.56308225 70.3759335276 122.6272757 C 70.5093254657 122.691469149 70.6427174037 122.156544309 70.7761093417 122.227099886 C 70.9095012797 122.297655462 71.0428932178 121.750221894 71.1762851558 121.826924071 C 71.3096770938 121.903626249 71.4430690318 121.344133782 71.5764609698 121.426748257 C 71.7098529079 121.509362733 71.8432448459 120.938298031 71.9766367839 121.026572443 C 72.1100287219 121.114846855 72.24342066 120.532731933 72.376812598 120.626396629 C 72.510204536 120.720061326 72.643596474 120.127451952 72.7769884121 120.226220815 C 72.9103803501 120.324989678 73.0437722881 119.722473681 73.1771642261 119.826045001 C 73.3105561642 119.929616322 73.4439481022 119.317811789 73.5773400402 119.425869187 C 73.7107319782 119.533926585 73.8441239162 118.91347998 73.9775158543 119.025693373 C 74.1109077923 119.137906766 74.2442997303 118.509490949 74.3776916683 118.625517559 C 74.5110836064 118.741544169 74.6444755444 118.105856344 74.7778674824 118.225341745 C 74.9112594204 118.344827145 75.0446513585 117.702586732 75.1780432965 117.825165931 C 75.3114352345 117.947745129 75.4448271725 117.299691563 75.5782191106 117.424990117 C 75.7116110486 117.550288671 75.8450029866 116.897179143 75.9783949246 117.024814303 C 76.1117868626 117.152449462 76.2451788007 116.49505661 76.3785707387 116.624638489 C 76.5119626767 116.754220367 76.6453546147 116.093329911 76.7787465528 116.224462675 C 76.9121384908 116.355595438 77.0455304288 115.692003784 77.1789223668 115.82428686 C 77.3123143049 115.956569937 77.4457062429 115.291081741 77.5790981809 115.424111046 C 77.7124901189 115.557140351 77.845882057 114.890566064 77.979273995 115.023935232 C 78.112665933 115.157304401 78.246057871 114.490457789 78.379449809 114.623759418 C 78.5128417471 114.757061047 78.6462336851 114.090756711 78.7796256231 114.223583604 C 78.9130175611 114.356410498 79.0464094992 113.691461379 79.1798014372 113.82340779 C 79.3131933752 113.955354201 79.4465853132 113.292569104 79.5799772513 113.423231976 C 79.7133691893 113.553894848 79.8467611273 112.894075964 79.9801530653 113.023056162 C 80.1135450034 113.152036359 80.2469369414 112.495976821 80.3803288794 112.622880348 C 80.5137208174 112.749783875 80.6471127554 112.09826533 80.7805046935 112.222704534 C 80.9138966315 112.347143738 81.0472885695 111.700933963 81.1806805075 111.82252872 C 81.3140724456 111.944123476 81.4474643836 111.303974032 81.5808563216 111.422352906 C 81.7142482596 111.540731779 81.8476401977 110.907375713 81.9810321357 111.022177092 C 82.1144240737 111.13697847 82.2478160117 110.511128078 82.3812079497 110.622001278 C 82.5145998878 110.732874477 82.6479918258 110.115219128 82.7813837638 110.221825463 C 82.9147757018 110.328431799 83.0481676399 109.719635827 83.1815595779 109.821649649 C 83.3149515159 109.923663472 83.4483434539 109.324364149 83.581735392 109.421473835 C 83.71512733 109.518583522 83.848519268 108.929389111 83.981911206 109.021298021 C 84.1153031441 109.113206932 84.2486950821 108.534694827 84.3820870201 108.621122207 C 84.5154789581 108.707549587 84.6488708961 108.140264554 84.7822628342 108.220946393 C 84.9156547722 108.301628233 85.0490467102 107.746080739 85.1824386482 107.820770579 C 85.3158305863 107.895460419 85.4492225243 107.352125079 85.5826144623 107.420594765 C 85.7160064003 107.489064451 85.8493983384 106.958378574 85.9827902764 107.020418951 C 86.1161822144 107.082459328 86.2495741524 106.564821583 86.3829660905 106.620243137 C 86.5163580285 106.675664691 86.6497499665 106.171433889 86.7831419045 106.220067323 C 86.9165338425 106.268700757 87.0499257806 105.778194755 87.1833177186 105.819891509 C 87.3167096566 105.861588262 87.4501015946 105.385082992 87.5834935327 105.419715695 C 87.7168854707 105.454348397 87.8502774087 104.992077022 87.9836693467 105.019539881 C 88.1170612848 105.047002739 88.2504532228 104.599154943 88.3838451608 104.619364066 C 88.5172370988 104.63957319 88.6506290369 104.206294596 88.7840209749 104.219188252 C 88.9174129129 104.232081909 89.0508048509 103.813473636 89.1841967889 103.819012438 C 89.317588727 103.824551241 89.450980665 103.420669595 89.584372603 103.418836624 C 89.717764541 103.417003654 89.8511564791 103.027859955 89.9845484171 103.01866081 C 90.1179403551 103.009461666 90.2513322931 102.635022214 90.3847242312 102.618484996 C 90.5181161692 102.601947778 90.6515081072 102.242133957 90.7849000452 102.218309182 C 90.9182919832 102.194484407 91.0516839213 101.849172923 91.1850758593 101.818133368 C 91.3184677973 101.787093813 91.4518597353 101.456117072 91.5852516734 101.417957554 C 91.7186436114 101.379798036 91.8520355494 101.062944655 91.9854274874 101.01778174 C 92.1188194255 100.972618825 92.2522113635 100.669634279 92.3856033015 100.617605926 C 92.5189952395 100.565577573 92.6523871776 100.276164971 92.7857791156 100.217430112 C 92.9191710536 100.158695252 93.0525629916 99.8825162469 93.1859549296 99.8172542976 C 93.3193468677 99.7519923484 93.4527388057 99.4886681666 93.5861307437 99.4170784836 C 93.7195226817 99.3454888005 93.8529146198 99.0946014013 93.9863065578 99.0169026695 C 94.1196984958 98.9392039377 94.2530904338 98.7002972896 94.3864823719 98.6167268554 C 94.5198743099 98.5331564212 94.6532662479 98.3057378953 94.7866581859 98.2165510413 C 94.920050124 98.1273641874 95.053442062 97.9109060619 95.186834 97.8163752273"
       style="fill:none;stroke:#000000;stroke-width:0.36501028;stroke-miterlimit:4;stroke-dasharray:none;stroke-dashoffset:0;stroke-opacity:1" />
    <path
       style="fill:none;stroke:#1e00e1;stroke-width:0.26458332px;stroke-linecap:butt;stroke-linejoin:miter;stroke-opacity:1"
       d="m 16.063988,128.84783 39.560581,8.77984 14.957636,-45.057447"
       id="path9608"
       inkscape:connector-curvature="0"
       sodipodi:nodetypes="ccc" />
    <text
       xml:space="preserve"
       style="font-style:normal;font-weight:normal;font-size:10.58333302px;line-height:1.25;font-family:sans-serif;letter-spacing:0px;word-spacing:0px;fill:#000000;fill-opacity:1;stroke:none;stroke-width:0.26458332"
       x="57.195675"
       y="141.31551"
       id="text9612"><tspan
         sodipodi:role="line"
         id="tspan9610"
         x="57.195675"
         y="141.31551"
         style="font-size:4.23333311px;stroke-width:0.26458332">y<tspan
   style="font-size:4.23333311px;baseline-shift:sub"
   id="tspan9614">i</tspan></tspan></text>
    <text
       xml:space="preserve"
       style="font-style:normal;font-weight:normal;font-size:10.58333302px;line-height:1.25;font-family:sans-serif;letter-spacing:0px;word-spacing:0px;fill:#000000;fill-opacity:1;stroke:none;stroke-width:0.26458332"
       x="4.9444871"
       y="97.082375"
       id="text9618"><tspan
         sodipodi:role="line"
         id="tspan9616"
         x="4.9444871"
         y="97.082375"
         style="font-size:4.23333311px;stroke-width:0.26458332">Toward Mean</tspan></text>
    <text
       xml:space="preserve"
       style="font-style:normal;font-weight:normal;font-size:10.58333302px;line-height:1.25;font-family:sans-serif;letter-spacing:0px;word-spacing:0px;fill:#0000e6;fill-opacity:1;stroke:none;stroke-width:0.26458332;"
       x="61.274845"
       y="90.375244"
       id="text9618-3"><tspan
         sodipodi:role="line"
         id="tspan9616-6"
         x="61.274845"
         y="90.375244"
         style="font-size:4.23333311px;stroke-width:0.26458332;fill:#0000e6;fill-opacity:1;">Toward 10-percentile</tspan></text>
  </g>
</svg>
